<mxfile host="app.diagrams.net" modified="2024-04-19T07:03:47.249Z" agent="Mozilla/5.0 (Windows NT 10.0; Win64; x64) AppleWebKit/537.36 (KHTML, like Gecko) Chrome/124.0.0.0 Safari/537.36" version="24.2.5" etag="XK9509AGf5InoHsM1Fw_" type="github">
  <diagram name="Page-1" id="fAzCUxUV3EmBu1buTRV6">
    <mxGraphModel>
      <root>
        <mxCell id="0" />
        <mxCell id="1" parent="0" />
      </root>
    </mxGraphModel>
  </diagram>
</mxfile>
